<svg width="85" height="94" viewBox="0 0 85 94" fill="none" xmlns="http://www.w3.org/2000/svg">
<g id="ic:baseline-apple">
<path id="Vector" d="M60.3855 79.43C56.9146 83.1508 53.1251 82.5633 49.4771 80.8008C45.6167 78.9992 42.0751 78.9208 38.0021 80.8008C32.9021 83.2292 30.2105 82.5242 27.1646 79.43C9.8813 59.7292 12.4313 29.7275 32.0521 28.6308C36.8334 28.905 40.1626 31.5292 42.9605 31.7642C47.1396 30.8242 51.1417 28.1217 55.6042 28.4742C60.9521 28.9442 64.9896 31.2942 67.6459 35.5242C56.5959 42.8483 59.2167 58.9458 69.3459 63.45C67.3271 69.325 64.7063 75.1608 60.3501 79.4692L60.3855 79.43ZM42.6063 28.3958C42.0751 19.6617 48.4855 12.455 55.8521 11.75C56.8792 21.855 47.5646 29.375 42.6063 28.3958Z" fill="black"/>
</g>
</svg>
