<svg width="53" height="58" viewBox="0 0 53 58" fill="none" xmlns="http://www.w3.org/2000/svg">
<g id="maki:gaming">
<path id="Vector" d="M46.2867 44.4667C44.1667 45.6267 41.3401 44.8534 39.9267 42.5334L36.0401 37.12H16.9601L13.0734 42.5334C11.3067 45.24 8.12674 45.6267 5.6534 43.6934C3.88674 42.1467 3.18007 39.8267 3.5334 37.8934L6.00674 23.5867C6.7134 18.9467 10.6001 15.4667 14.8401 15.4667H24.7334V9.6667C24.7334 6.57337 26.8534 3.8667 29.6801 3.8667H40.6334C41.6934 3.8667 42.4001 4.64003 42.4001 5.80003C42.4001 6.96003 41.6934 7.73337 40.6334 7.73337H30.0334C28.9734 7.73337 28.2667 8.5067 28.2667 9.28003V15.4667H38.1601C42.4001 15.4667 46.2867 18.9467 46.9934 23.5867L49.4667 37.8934C49.8201 40.6 48.7601 43.3067 46.2867 44.4667ZM21.2001 25.1334C21.2001 22.04 18.7267 19.3334 15.9001 19.3334C13.0734 19.3334 10.6001 22.04 10.6001 25.1334C10.6001 28.2267 13.0734 30.9334 15.9001 30.9334C18.7267 30.9334 21.2001 28.2267 21.2001 25.1334ZM42.4001 25.1334C42.4001 23.9734 41.6934 23.2 40.6334 23.2H38.8667V21.2667C38.8667 20.1067 38.1601 19.3334 37.1001 19.3334C36.0401 19.3334 35.3334 20.1067 35.3334 21.2667V23.2H33.5667C32.5067 23.2 31.8001 23.9734 31.8001 25.1334C31.8001 26.2934 32.5067 27.0667 33.5667 27.0667H35.3334V29C35.3334 30.16 36.0401 30.9334 37.1001 30.9334C38.1601 30.9334 38.8667 30.16 38.8667 29V27.0667H40.6334C41.6934 27.0667 42.4001 26.2934 42.4001 25.1334Z" fill="black"/>
</g>
</svg>
