<svg width="85" height="94" viewBox="0 0 85 94" fill="none" xmlns="http://www.w3.org/2000/svg">
<g id="mdi:import">
<path id="Vector" d="M49.5833 47.0001L35.4166 31.3334V43.0834H7.08325V50.9167H35.4166V62.6667M70.8333 70.5001V23.5001C70.8333 21.4226 70.087 19.4301 68.7586 17.9611C67.4302 16.492 65.6285 15.6667 63.7499 15.6667H21.2499C19.3713 15.6667 17.5696 16.492 16.2412 17.9611C14.9129 19.4301 14.1666 21.4226 14.1666 23.5001V35.2501H21.2499V23.5001H63.7499V70.5001H21.2499V58.7501H14.1666V70.5001C14.1666 72.5776 14.9129 74.57 16.2412 76.0391C17.5696 77.5081 19.3713 78.3334 21.2499 78.3334H63.7499C65.6285 78.3334 67.4302 77.5081 68.7586 76.0391C70.087 74.57 70.8333 72.5776 70.8333 70.5001Z" fill="black"/>
</g>
</svg>
