<svg width="85" height="94" viewBox="0 0 85 94" fill="none" xmlns="http://www.w3.org/2000/svg">
<g id="mdi:account-edit">
<path id="Vector" d="M76.8543 52.2876L73.3126 56.2043L66.0522 48.1751L69.5938 44.2584C69.958 43.8637 70.4475 43.6426 70.9574 43.6426C71.4672 43.6426 71.9568 43.8637 72.3209 44.2584L76.8543 49.2717C77.598 50.0942 77.598 51.4651 76.8543 52.2876ZM42.5001 74.1818L63.9626 50.4467L71.223 58.4759L49.7959 82.2501H42.5001V74.1818ZM42.5001 54.8334C26.8459 54.8334 14.1667 61.8442 14.1667 70.5001V78.3334H35.4167V70.9309L49.5834 55.2642C47.2459 54.9509 44.873 54.8334 42.5001 54.8334ZM42.5001 15.6667C38.7428 15.6667 35.1395 17.3173 32.4827 20.2554C29.826 23.1935 28.3334 27.1784 28.3334 31.3334C28.3334 35.4885 29.826 39.4734 32.4827 42.4114C35.1395 45.3495 38.7428 47.0001 42.5001 47.0001C46.2573 47.0001 49.8607 45.3495 52.5174 42.4114C55.1742 39.4734 56.6667 35.4885 56.6667 31.3334C56.6667 27.1784 55.1742 23.1935 52.5174 20.2554C49.8607 17.3173 46.2573 15.6667 42.5001 15.6667Z" fill="black"/>
</g>
</svg>
